<?xml version="1.0" encoding="UTF-8" standalone="no"?>
<!-- Created with Inkscape (http://www.inkscape.org/) -->

<svg
   width="100"
   height="100"
   viewBox="0 0 26.458333 26.458333"
   version="1.1"
   id="svg1"
   xml:space="preserve"
   inkscape:version="1.3.2 (091e20e, 2023-11-25, custom)"
   sodipodi:docname="fullscreen.svg"
   xmlns:inkscape="http://www.inkscape.org/namespaces/inkscape"
   xmlns:sodipodi="http://sodipodi.sourceforge.net/DTD/sodipodi-0.dtd"
   xmlns="http://www.w3.org/2000/svg"
   xmlns:svg="http://www.w3.org/2000/svg"><sodipodi:namedview
     id="namedview1"
     pagecolor="#ffffff"
     bordercolor="#000000"
     borderopacity="0.25"
     inkscape:showpageshadow="2"
     inkscape:pageopacity="0.0"
     inkscape:pagecheckerboard="true"
     inkscape:deskcolor="#d1d1d1"
     inkscape:document-units="mm"
     inkscape:zoom="5.8511223"
     inkscape:cx="56.399436"
     inkscape:cy="43.495929"
     inkscape:window-width="1920"
     inkscape:window-height="1017"
     inkscape:window-x="-8"
     inkscape:window-y="-8"
     inkscape:window-maximized="1"
     inkscape:current-layer="layer2"
     showguides="false"><sodipodi:guide
       position="3.2105663,32.924685"
       orientation="0,-1"
       id="guide4"
       inkscape:locked="false" /></sodipodi:namedview><defs
     id="defs1" /><g
     inkscape:groupmode="layer"
     id="layer2"
     inkscape:label="Шар 2"><path
       style="fill:none;stroke:#ffffff;stroke-width:2.178;stroke-linejoin:round;stroke-dasharray:none;stroke-opacity:1"
       d="m 8.817753,4.7480206 c -1.1192548,0.046748 -2.2319121,-0.06137 -3.3462244,-0.1356577 -0.00362,-2.419e-4 -0.5834848,-0.00437 -0.5878502,0 -0.042604,0.042604 -0.039323,0.7746584 -0.045219,0.904385 -0.015073,0.2110229 -0.030146,0.4220461 -0.045219,0.6330693 -0.015073,0.1055116 -0.037045,0.2102659 -0.045219,0.3165348 -0.055956,0.7274279 0,1.4853081 0,2.2157424"
       id="path10" /><path
       style="fill:none;stroke:#ffffff;stroke-width:2.178;stroke-linejoin:round;stroke-dasharray:none;stroke-opacity:1"
       d="m 4.8836784,17.997259 c 0.00551,0.798669 -0.021093,1.600886 0.045219,2.39662 0.024384,0.292596 0.090439,0.562929 0.090439,0.859166 0,0.211023 0,0.422046 0,0.633069 0,6.08e-4 -0.00724,0.223681 0,0.226096 0.090155,0.03005 0.9710801,-0.08854 0.9948233,-0.09044 0.5577522,-0.04462 1.1146676,-0.100755 1.6731122,-0.135658 0.2106121,-0.01316 0.4283467,0.05118 0.6330688,0 0.111639,-0.02791 0.161095,-0.04522 0.271316,-0.04522"
       id="path11" /><path
       style="fill:none;stroke:#ffffff;stroke-width:2.178;stroke-linejoin:round;stroke-dasharray:none;stroke-opacity:1"
       d="m 17.635506,21.614799 c 0.06029,-0.01507 0.118867,-0.04108 0.180877,-0.04522 0.569139,-0.03794 1.150373,0.05163 1.718331,0 0.242048,-0.02201 0.482064,-0.06258 0.723508,-0.09044 0.256309,-0.02957 0.511777,-0.06708 0.768727,-0.09044 0.06004,-0.0055 0.122385,0.01462 0.180877,0 0.01462,-0.0037 -0.01066,-0.03456 0,-0.04522 0.01066,-0.01066 0.03015,0 0.04522,0 0.01507,-0.01507 0.03339,-0.02748 0.04522,-0.04522 0.100612,-0.150918 0.04522,-0.419442 0.04522,-0.58785 0,-0.481478 -0.01182,0.163462 0.04522,-0.406973 0.03371,-0.337083 0,-0.702544 0,-1.040043 0,-0.829019 0,-1.658039 0,-2.487058"
       id="path12" /><path
       style="fill:none;stroke:#ffffff;stroke-width:2.178;stroke-linejoin:round;stroke-dasharray:none;stroke-opacity:1"
       d="M 21.750457,9.0438492 C 21.595124,8.209568 21.643836,7.3531403 21.56958,6.5115711 21.459632,5.2654934 21.49721,6.5745841 21.433922,5.561967 c -0.01169,-0.1869961 0.05687,-0.959871 0,-1.130481 -0.0038,-0.011488 -0.894777,-0.00392 -0.949604,0 -0.275978,0.019711 -0.539238,0.1127652 -0.813947,0.1356577 -0.824899,0.068742 -1.657842,0.045219 -2.487058,0.045219"
       id="path13" /></g></svg>
