<?xml version="1.0" encoding="UTF-8" standalone="no"?>
<!-- Created with Inkscape (http://www.inkscape.org/) -->

<svg
   width="100"
   height="100"
   viewBox="0 0 26.458333 26.458333"
   version="1.1"
   id="svg1"
   xml:space="preserve"
   inkscape:version="1.3.2 (091e20e, 2023-11-25, custom)"
   sodipodi:docname="options.svg"
   xmlns:inkscape="http://www.inkscape.org/namespaces/inkscape"
   xmlns:sodipodi="http://sodipodi.sourceforge.net/DTD/sodipodi-0.dtd"
   xmlns="http://www.w3.org/2000/svg"
   xmlns:svg="http://www.w3.org/2000/svg"><sodipodi:namedview
     id="namedview1"
     pagecolor="#ffffff"
     bordercolor="#000000"
     borderopacity="0.25"
     inkscape:showpageshadow="2"
     inkscape:pageopacity="0.0"
     inkscape:pagecheckerboard="true"
     inkscape:deskcolor="#d1d1d1"
     inkscape:document-units="mm"
     inkscape:zoom="5.8511223"
     inkscape:cx="44.265012"
     inkscape:cy="53.921279"
     inkscape:window-width="1920"
     inkscape:window-height="1017"
     inkscape:window-x="-8"
     inkscape:window-y="-8"
     inkscape:window-maximized="1"
     inkscape:current-layer="layer2"
     showguides="false"><sodipodi:guide
       position="3.2105663,32.924685"
       orientation="0,-1"
       id="guide4"
       inkscape:locked="false" /></sodipodi:namedview><defs
     id="defs1" /><g
     inkscape:groupmode="layer"
     id="layer2"
     inkscape:label="Шар 2"><path
       style="fill:none;stroke:#ffffff;stroke-width:2.93844;stroke-linejoin:round;stroke-dasharray:none;stroke-opacity:1"
       d="m 12.688865,4.1282815 c 0.321255,-0.2793959 0.473565,-0.3050369 0.854103,-0.3050369 0.06101,0 0.139883,-0.043139 0.183022,0 0.01438,0.014378 -0.0076,0.042126 0,0.061007 0.03377,0.08444 0.08618,0.1604383 0.122017,0.2440295 0.209399,0.4885992 0.392949,1.1833874 0.183022,1.7082054 -0.07913,0.1977994 -0.347721,0.4819512 -0.549066,0.5490663 -0.22102,0.073673 -0.667271,0.02745 -0.854103,-0.1220153 -0.27754,-0.2220315 -0.55185,-0.8707992 -0.610073,-1.220147 -0.01336,-0.080236 -0.06769,-0.1989083 0,-0.2440293 0.05351,-0.035671 0.125497,-0.032247 0.183022,-0.061007 0.412617,-0.206309 0.341175,-0.095984 0.488059,-0.6100731 z"
       id="path8" /><path
       style="fill:none;stroke:#ffffff;stroke-width:2.70871;stroke-linejoin:round;stroke-dasharray:none;stroke-opacity:1"
       d="m 13.228413,11.470332 c -0.74763,-0.0459 -1.096832,0.152589 -1.293468,0.899804 -0.05283,0.20077 -0.332611,1.298283 -0.05624,1.574656 0.418966,0.418965 0.89563,0.562379 1.462182,0.562379 0.07498,0 0.157884,0.03353 0.224951,0 0.09484,-0.04742 0.145146,-0.155122 0.224951,-0.224953 0.07054,-0.06172 0.168713,-0.09372 0.224951,-0.168712 0.06057,-0.08076 0.07071,-0.189287 0.112477,-0.281188 0.05204,-0.11448 0.125739,-0.219247 0.168713,-0.337427 0.156206,-0.429565 0.119194,-1.019821 -0.112477,-1.405944 -0.02935,-0.04893 -0.0511,-0.138025 -0.112477,-0.168713 -0.110351,-0.05517 -0.327615,-0.148332 -0.449902,-0.168713 -0.05547,-0.0092 -0.122949,0.03268 -0.168713,0 -0.523354,-0.373825 0.166429,-0.368161 -0.731089,-0.168713"
       id="path9" /><path
       style="fill:none;stroke:#ffffff;stroke-width:3.02997;stroke-linejoin:round;stroke-dasharray:none;stroke-opacity:1"
       d="m 11.815518,19.735242 c 0.07006,0.356298 -0.202827,1.691456 0.188724,1.887232 0.296549,0.148273 0.638043,-0.185878 0.943614,-0.314539 0.165122,-0.06953 0.343016,-0.108594 0.503262,-0.188723 0.893828,-0.446914 1.360998,-1.319413 1.006523,-2.264677 -0.0074,-0.01963 -0.04194,0 -0.06291,0 -0.104838,0 -0.209692,0 -0.314538,0 -0.497605,0 0.21865,-0.01989 -0.754892,0.188723 -0.102516,0.02197 -0.210334,-0.01155 -0.314539,0 -0.278588,0.03095 -0.4976,0.178119 -0.754892,0.251631 -0.06049,0.01728 -0.126666,-0.0103 -0.188723,0 -0.306783,0.05112 -0.251631,0.175646 -0.251631,0.440353 z"
       id="path10" /></g></svg>
