<?xml version="1.0" encoding="UTF-8" standalone="no"?>
<!-- Created with Inkscape (http://www.inkscape.org/) -->

<svg
   width="100"
   height="100"
   viewBox="0 0 26.458333 26.458333"
   version="1.1"
   id="svg1"
   xml:space="preserve"
   inkscape:version="1.3.2 (091e20e, 2023-11-25, custom)"
   sodipodi:docname="sound.svg"
   xmlns:inkscape="http://www.inkscape.org/namespaces/inkscape"
   xmlns:sodipodi="http://sodipodi.sourceforge.net/DTD/sodipodi-0.dtd"
   xmlns="http://www.w3.org/2000/svg"
   xmlns:svg="http://www.w3.org/2000/svg"><sodipodi:namedview
     id="namedview1"
     pagecolor="#ffffff"
     bordercolor="#000000"
     borderopacity="0.25"
     inkscape:showpageshadow="2"
     inkscape:pageopacity="0.0"
     inkscape:pagecheckerboard="true"
     inkscape:deskcolor="#d1d1d1"
     inkscape:document-units="mm"
     inkscape:zoom="5.8511223"
     inkscape:cx="45.803178"
     inkscape:cy="43.495929"
     inkscape:window-width="1920"
     inkscape:window-height="1017"
     inkscape:window-x="-8"
     inkscape:window-y="-8"
     inkscape:window-maximized="1"
     inkscape:current-layer="layer2"
     showguides="false"><sodipodi:guide
       position="3.2105663,32.924685"
       orientation="0,-1"
       id="guide4"
       inkscape:locked="false" /></sodipodi:namedview><defs
     id="defs1" /><g
     inkscape:groupmode="layer"
     id="layer2"
     inkscape:label="Шар 2"><path
       style="fill:none;stroke:#ffffff;stroke-width:2.178;stroke-linejoin:round;stroke-dasharray:none;stroke-opacity:1"
       d="m 12.853883,5.5955961 c -0.07408,0.2716115 -0.0893,0.3973542 -0.223823,0.6394966 -0.05599,0.100779 -0.137908,0.1858843 -0.191849,0.2877735 -0.139082,0.2627101 -0.04137,0.1940912 -0.159875,0.383698 -0.127451,0.2039218 -0.310912,0.3766587 -0.447647,0.575547 -0.07873,0.1145146 -0.140444,0.2405497 -0.223824,0.3517231 -0.122176,0.162901 -0.284142,0.2922024 -0.415673,0.4476477 -0.287783,0.3401071 -0.61623,0.7092519 -0.99122,0.9592451 -0.12046,0.080307 -0.2632373,0.1435168 -0.3836979,0.223824 C 9.647907,9.5767958 9.5065039,9.7401612 9.3366517,9.848249 c -0.048424,0.030815 -0.111202,0.03353 -0.1598742,0.06395 -0.038346,0.023966 -0.061186,0.066976 -0.095925,0.095924 -0.2079199,0.173267 0.014163,-0.027683 -0.1918488,0.09593 -0.1598742,0.09592 0,0.03197 -0.095925,0.09592 -0.1086956,0.07246 -0.017148,0.0043 -0.1278993,0.03197 -0.1325615,0.03314 -0.2632154,0.163583 -0.383698,0.223824 -0.067322,0.03366 -0.6106948,0.0077 -0.7034463,0 -0.064608,-0.0054 -0.1278994,-0.02132 -0.1918489,-0.03198 -0.074608,-0.01066 -0.1486805,-0.02619 -0.223824,-0.03197 -0.2324729,-0.01788 -0.4698415,-0.03198 -0.7034464,-0.03198 -0.1551387,0 -0.3256674,0.01811 -0.4796223,0 -0.1287754,-0.01515 -0.2549226,-0.0488 -0.383698,-0.06395 -0.1164381,-0.0137 -0.235064,0.01167 -0.3517233,0 -0.1499828,-0.015 -0.2977451,-0.04817 -0.4476477,-0.06395 -0.1100199,-0.01158 -0.8882687,-0.0195 -0.9272702,0 -0.029689,0.01485 -0.2169967,0.580933 -0.2557986,0.671471 -0.089427,0.208663 -0.061931,0.179737 -0.095924,0.383698 -0.00392,0.02351 -0.028057,0.04044 -0.031975,0.06395 -0.018904,0.113425 0.012705,0.237372 0,0.351723 -0.043173,0.388555 -0.016708,-0.04292 -0.06395,0.287774 -0.028657,0.200596 0.01021,0.411649 0.031975,0.607522 0.00942,0.08474 -0.012057,0.171389 0,0.255798 0.021468,0.150275 0.039289,0.299683 0.06395,0.447648 0.036117,0.216702 -0.043056,0.456192 0,0.671472 0.00467,0.02337 0.028057,0.04044 0.031975,0.06395 0.018288,0.109731 0,0.239921 0,0.351723 0,0.223824 0,0.447648 0,0.671472 0,0.107105 0.015999,0.175938 0.031975,0.287773 0.01,0.07 -0.018053,0.493545 0,0.511598 0.00754,0.0075 0.021635,0.0026 0.031975,0 0.2450878,-0.06127 0.4891249,-0.101233 0.7354213,-0.159874 0.9056986,-0.181568 -0.066494,-0.0074 0.6714715,-0.191849 0.5383122,-0.134579 0.028462,0.0096 0.3197481,-0.03197 0.1456812,-0.02081 0.2714498,-0.09905 0.4156729,-0.1279 0.092235,-0.01845 0.1955384,0.01845 0.2877735,0 0.023371,-0.0047 0.04058,-0.0273 0.06395,-0.03197 0.1218517,-0.02437 0.3308011,-0.01669 0.4476477,0 0.023593,0.0034 0.040829,0.02619 0.06395,0.03197 0.03102,0.0078 0.06559,-0.01011 0.095924,0 0.098328,0.03278 0.1819161,0.07828 0.2877735,0.09592 0.03154,0.0053 0.073315,-0.02261 0.095925,0 0.00754,0.0075 -0.00754,0.02444 0,0.03198 0.01478,0.01478 0.076619,-0.0097 0.095924,0 0.026963,0.01348 0.03535,0.05442 0.06395,0.06395 0.028225,0.0094 0.094308,0 0.1278993,0 0.061649,0 0.2098908,0.01804 0.2557987,0.06395 0.016851,0.01685 0.015124,0.0471 0.031975,0.06395 0.027173,0.02717 0.068751,0.03678 0.095924,0.06395 0.064832,0.06483 0.098961,0.155297 0.1598742,0.223824 0.110154,0.123924 0.2392616,0.22989 0.351723,0.351723 0.080287,0.08698 0.5015323,0.59436 0.5115973,0.607522 0.037752,0.04937 0.057101,0.111345 0.095925,0.159875 0.1443215,0.180402 0.3271475,0.33734 0.4796224,0.511597 0.075087,0.08581 0.1721577,0.246562 0.2557986,0.319748 0.057842,0.05061 0.1278996,0.08527 0.1918491,0.1279 0.095924,0.117241 0.1806591,0.244608 0.2877742,0.351723 0.04394,0.04395 0.110155,0.05864 0.159874,0.09592 0.07861,0.05896 0.149216,0.1279 0.223824,0.191849 0.09155,0.07848 0.177323,0.164244 0.255798,0.255799 0.01551,0.01809 0.01336,0.04906 0.03197,0.06395 0.03722,0.02978 0.09128,0.03344 0.127899,0.06395 0.02952,0.0246 0.03678,0.06875 0.06395,0.09593 0.163579,0.163578 0.41927,0.259395 0.607522,0.447647 0.125776,0.125777 0.39496,0.358481 0.543572,0.447648 0.04059,0.02435 0.122889,0.03929 0.159874,0.06395 0.03763,0.02508 0.05303,0.08162 0.09593,0.09592 0.02022,0.0067 0.04373,-0.0067 0.06395,0 0.118534,0.03951 -0.03898,0.03197 0.06395,0.03197 0.04132,0 0.158121,0.03373 0.159875,0.03197 0.04778,-0.04778 0.05928,-0.523485 0.06395,-0.607522 0.06187,-1.113719 -0.0015,0.07903 0.06395,-0.575547 0.0074,-0.07424 -0.01463,-0.150665 0,-0.223824 0.0047,-0.02337 0.0273,-0.04058 0.03197,-0.06395 0.02455,-0.122755 -0.02057,-0.260302 0,-0.383698 0.0055,-0.03325 0.02721,-0.06256 0.03197,-0.09592 0.02833,-0.198327 -0.01431,-0.407228 0,-0.607522 0.0486,-0.680416 0.03198,-1.363894 0.03198,-2.046389 0,-0.714105 0,-1.42821 0,-2.142314 0,-0.368372 -0.03059,-0.752083 0,-1.119119 0.0287,-0.344398 0.03197,-0.675149 0.03197,-1.023195 0,-1.318363 -0.02247,-0.03709 0.03198,-0.799371 0.0203,-0.28414 0,-0.578583 0,-0.8633203 0,-0.68213 0,-1.3642597 0,-2.0463893 0,-0.4159811 0.01927,-0.8370512 -0.03198,-1.2470186 -0.01866,-0.1493139 0.005,-0.171813 -0.03197,-0.3197484 -0.03675,-0.1470015 0.0011,-0.3461131 -0.03198,-0.5115973 z"
       id="path5" /><path
       style="fill:none;stroke:#ffffff;stroke-width:2.178;stroke-linejoin:round;stroke-dasharray:none;stroke-opacity:1"
       d="m 15.315946,5.5636212 c 0.117241,0.074608 0.233018,0.1515684 0.351723,0.2238238 0.232969,0.1418074 0.47656,0.2393158 0.703446,0.3836979 0.303359,0.1930464 0.400416,0.2978716 0.799371,0.5115975 0.08913,0.047748 0.194836,0.056094 0.287774,0.095924 0.143211,-0.067628 0.123105,0.093528 0.191848,0.1278993 0.207997,0.1039982 0.403437,0.2351032 0.607522,0.3517233 0.425442,0.2431098 1.002216,0.6220979 1.342943,0.9912196 0.05213,0.056476 0.08269,0.1296914 0.1279,0.1918492 0.0891,0.1225094 0.201548,0.2271754 0.287773,0.351723 0.04891,0.070651 0.07736,0.1543293 0.127899,0.223824 0.03546,0.048761 0.09553,0.077033 0.1279,0.1278993 0.088,0.138285 0.09889,0.269308 0.159874,0.4156729 0.05869,0.1408647 0.123603,0.2791804 0.191849,0.4156728 0.03843,0.076858 0.09405,0.1448422 0.127899,0.2238242 0.04837,0.169278 0.05832,0.232951 0.1279,0.383698 0.06013,0.130284 0.127042,0.220395 0.159874,0.351723 0.01318,0.05272 0.02132,0.106583 0.03197,0.159875 0.02132,0.05329 0.04746,0.104898 0.06395,0.159874 0.03123,0.104109 0.03272,0.215639 0.06395,0.319748 0.01649,0.05498 0.05269,0.103592 0.06395,0.159874 0.01045,0.05226 -0.01045,0.107618 0,0.159874 0.01125,0.05628 0.05337,0.103461 0.06395,0.159875 0.09115,0.486125 0.003,0.195585 0.03197,0.543572 0.0054,0.06461 0.02132,0.127899 0.03197,0.191849 0.01066,0.106582 0.02485,0.212871 0.03197,0.319748 0.01581,0.237203 -0.0061,0.470189 -0.03197,0.703446 -0.01177,0.105931 0.0096,0.213604 0,0.319749 -0.02318,0.254953 -0.04263,0.511502 -0.06395,0.767396 -0.0185,0.222049 0.01587,0.449312 0,0.671471 -0.01456,0.20383 -0.143569,0.958609 -0.223824,1.119119 -0.02383,0.04767 -0.07209,0.08023 -0.09592,0.1279 -0.137092,0.274183 0.103457,-0.03124 -0.09592,0.287773 -0.04793,0.07669 -0.136326,0.120462 -0.191849,0.191849 -0.04719,0.06067 -0.07923,0.132365 -0.1279,0.191849 -0.184489,0.225487 -0.537056,0.511497 -0.767396,0.703447 -0.105613,0.08801 -0.09873,0.04971 -0.223824,0.127899 -0.134803,0.08425 -0.253567,0.20102 -0.383698,0.287774 -0.0715,0.04766 -0.154329,0.07736 -0.223823,0.127899 -0.158047,0.114943 -0.265224,0.260511 -0.447648,0.351723 -0.03931,0.01965 -0.08974,0.01017 -0.127899,0.03198 -0.03926,0.02243 -0.05913,0.06964 -0.09592,0.09592 -0.236665,0.118333 -0.02938,-0.0022 -0.223824,0.159875 -0.120901,0.100751 -0.278578,0.155276 -0.415673,0.223823 -0.101937,0.05097 -0.188761,0.135271 -0.287773,0.191849 -0.12958,0.07405 -0.248871,0.105944 -0.383698,0.159875 -0.184213,0.07368 -0.407189,0.207509 -0.575547,0.319748 -0.07917,0.05278 -0.07813,0.01154 -0.159874,0.03198 -0.07276,0.01819 -0.130095,0.112461 -0.191849,0.127899 -0.02063,0.0052 -0.278627,0.02283 -0.287774,0.03197 -0.0075,0.0075 0.0089,0.02606 0,0.03197 -0.03622,0.02415 -0.224678,0.05876 -0.255798,0.06395 -0.0021,3.44e-4 -0.119198,-0.0087 -0.1279,0 -0.04263,0.04263 0.05329,0.03197 -0.03198,0.03197"
       id="path6" /><path
       style="fill:none;stroke:#ffffff;stroke-width:2.178;stroke-linejoin:round;stroke-dasharray:none;stroke-opacity:1"
       d="m 15.34792,16.051367 c 0.191399,-0.245477 0.29381,-0.55162 0.479623,-0.799371 0.02713,-0.03618 0.07084,-0.0583 0.09592,-0.09592 0.03739,-0.05609 0.04263,-0.1279 0.06395,-0.19185 0.06395,-0.191849 0.139743,-0.380148 0.191849,-0.575547 0.01671,-0.06264 0.01291,-0.129884 0.03198,-0.191849 0.02387,-0.07758 0.07205,-0.146242 0.09592,-0.223823 0.01907,-0.06197 0.01625,-0.128953 0.03197,-0.19185 0.04588,-0.183512 0.147892,-0.383827 0.159875,-0.575546 0.01362,-0.217901 0,-0.450811 0,-0.671472 0,-0.329602 0.01446,-0.666198 -0.03197,-0.99122 -0.0139,-0.09728 -0.04901,-0.190652 -0.06395,-0.287773 -0.04166,-0.270784 -0.03365,-0.558629 -0.06395,-0.831346 -0.01549,-0.139423 -0.07607,-0.276693 -0.09592,-0.415673 -0.012,-0.084011 -0.01146,-0.1737421 -0.03197,-0.2557984 -0.01889,-0.075555 -0.09592,-0.1167569 -0.09592,-0.1918491"
       id="path7" /></g></svg>
