<?xml version="1.0" encoding="UTF-8" standalone="no"?>
<!-- Created with Inkscape (http://www.inkscape.org/) -->

<svg
   width="100"
   height="100"
   viewBox="0 0 26.458333 26.458333"
   version="1.1"
   id="svg1"
   xml:space="preserve"
   inkscape:version="1.3.2 (091e20e, 2023-11-25, custom)"
   sodipodi:docname="sound_muted.svg"
   xmlns:inkscape="http://www.inkscape.org/namespaces/inkscape"
   xmlns:sodipodi="http://sodipodi.sourceforge.net/DTD/sodipodi-0.dtd"
   xmlns="http://www.w3.org/2000/svg"
   xmlns:svg="http://www.w3.org/2000/svg"><sodipodi:namedview
     id="namedview1"
     pagecolor="#ffffff"
     bordercolor="#000000"
     borderopacity="0.25"
     inkscape:showpageshadow="2"
     inkscape:pageopacity="0.0"
     inkscape:pagecheckerboard="true"
     inkscape:deskcolor="#d1d1d1"
     inkscape:document-units="mm"
     inkscape:zoom="5.8511223"
     inkscape:cx="45.803178"
     inkscape:cy="43.495929"
     inkscape:window-width="1920"
     inkscape:window-height="1017"
     inkscape:window-x="-8"
     inkscape:window-y="-8"
     inkscape:window-maximized="1"
     inkscape:current-layer="layer2"
     showguides="false"><sodipodi:guide
       position="3.2105663,32.924685"
       orientation="0,-1"
       id="guide4"
       inkscape:locked="false" /></sodipodi:namedview><defs
     id="defs1" /><g
     inkscape:groupmode="layer"
     id="layer2"
     inkscape:label="Шар 2"><path
       style="fill:none;stroke:#ffffff;stroke-width:2.178;stroke-linejoin:round;stroke-dasharray:none;stroke-opacity:1"
       d="m 12.853883,5.5955961 c -0.07408,0.2716115 -0.0893,0.3973542 -0.223823,0.6394966 -0.05599,0.100779 -0.137908,0.1858843 -0.191849,0.2877735 -0.139082,0.2627101 -0.04137,0.1940912 -0.159875,0.383698 -0.127451,0.2039218 -0.310912,0.3766587 -0.447647,0.575547 -0.07873,0.1145146 -0.140444,0.2405497 -0.223824,0.3517231 -0.122176,0.162901 -0.284142,0.2922024 -0.415673,0.4476477 -0.287783,0.3401071 -0.61623,0.7092519 -0.99122,0.9592451 -0.12046,0.080307 -0.2632373,0.1435168 -0.3836979,0.223824 C 9.647907,9.5767958 9.5065039,9.7401612 9.3366517,9.848249 c -0.048424,0.030815 -0.111202,0.03353 -0.1598742,0.06395 -0.038346,0.023966 -0.061186,0.066976 -0.095925,0.095924 -0.2079199,0.173267 0.014163,-0.027683 -0.1918488,0.09593 -0.1598742,0.09592 0,0.03197 -0.095925,0.09592 -0.1086956,0.07246 -0.017148,0.0043 -0.1278993,0.03197 -0.1325615,0.03314 -0.2632154,0.163583 -0.383698,0.223824 -0.067322,0.03366 -0.6106948,0.0077 -0.7034463,0 -0.064608,-0.0054 -0.1278994,-0.02132 -0.1918489,-0.03198 -0.074608,-0.01066 -0.1486805,-0.02619 -0.223824,-0.03197 -0.2324729,-0.01788 -0.4698415,-0.03198 -0.7034464,-0.03198 -0.1551387,0 -0.3256674,0.01811 -0.4796223,0 -0.1287754,-0.01515 -0.2549226,-0.0488 -0.383698,-0.06395 -0.1164381,-0.0137 -0.235064,0.01167 -0.3517233,0 -0.1499828,-0.015 -0.2977451,-0.04817 -0.4476477,-0.06395 -0.1100199,-0.01158 -0.8882687,-0.0195 -0.9272702,0 -0.029689,0.01485 -0.2169967,0.580933 -0.2557986,0.671471 -0.089427,0.208663 -0.061931,0.179737 -0.095924,0.383698 -0.00392,0.02351 -0.028057,0.04044 -0.031975,0.06395 -0.018904,0.113425 0.012705,0.237372 0,0.351723 -0.043173,0.388555 -0.016708,-0.04292 -0.06395,0.287774 -0.028657,0.200596 0.01021,0.411649 0.031975,0.607522 0.00942,0.08474 -0.012057,0.171389 0,0.255798 0.021468,0.150275 0.039289,0.299683 0.06395,0.447648 0.036117,0.216702 -0.043056,0.456192 0,0.671472 0.00467,0.02337 0.028057,0.04044 0.031975,0.06395 0.018288,0.109731 0,0.239921 0,0.351723 0,0.223824 0,0.447648 0,0.671472 0,0.107105 0.015999,0.175938 0.031975,0.287773 0.01,0.07 -0.018053,0.493545 0,0.511598 0.00754,0.0075 0.021635,0.0026 0.031975,0 0.2450878,-0.06127 0.4891249,-0.101233 0.7354213,-0.159874 0.9056986,-0.181568 -0.066494,-0.0074 0.6714715,-0.191849 0.5383122,-0.134579 0.028462,0.0096 0.3197481,-0.03197 0.1456812,-0.02081 0.2714498,-0.09905 0.4156729,-0.1279 0.092235,-0.01845 0.1955384,0.01845 0.2877735,0 0.023371,-0.0047 0.04058,-0.0273 0.06395,-0.03197 0.1218517,-0.02437 0.3308011,-0.01669 0.4476477,0 0.023593,0.0034 0.040829,0.02619 0.06395,0.03197 0.03102,0.0078 0.06559,-0.01011 0.095924,0 0.098328,0.03278 0.1819161,0.07828 0.2877735,0.09592 0.03154,0.0053 0.073315,-0.02261 0.095925,0 0.00754,0.0075 -0.00754,0.02444 0,0.03198 0.01478,0.01478 0.076619,-0.0097 0.095924,0 0.026963,0.01348 0.03535,0.05442 0.06395,0.06395 0.028225,0.0094 0.094308,0 0.1278993,0 0.061649,0 0.2098908,0.01804 0.2557987,0.06395 0.016851,0.01685 0.015124,0.0471 0.031975,0.06395 0.027173,0.02717 0.068751,0.03678 0.095924,0.06395 0.064832,0.06483 0.098961,0.155297 0.1598742,0.223824 0.110154,0.123924 0.2392616,0.22989 0.351723,0.351723 0.080287,0.08698 0.5015323,0.59436 0.5115973,0.607522 0.037752,0.04937 0.057101,0.111345 0.095925,0.159875 0.1443215,0.180402 0.3271475,0.33734 0.4796224,0.511597 0.075087,0.08581 0.1721577,0.246562 0.2557986,0.319748 0.057842,0.05061 0.1278996,0.08527 0.1918491,0.1279 0.095924,0.117241 0.1806591,0.244608 0.2877742,0.351723 0.04394,0.04395 0.110155,0.05864 0.159874,0.09592 0.07861,0.05896 0.149216,0.1279 0.223824,0.191849 0.09155,0.07848 0.177323,0.164244 0.255798,0.255799 0.01551,0.01809 0.01336,0.04906 0.03197,0.06395 0.03722,0.02978 0.09128,0.03344 0.127899,0.06395 0.02952,0.0246 0.03678,0.06875 0.06395,0.09593 0.163579,0.163578 0.41927,0.259395 0.607522,0.447647 0.125776,0.125777 0.39496,0.358481 0.543572,0.447648 0.04059,0.02435 0.122889,0.03929 0.159874,0.06395 0.03763,0.02508 0.05303,0.08162 0.09593,0.09592 0.02022,0.0067 0.04373,-0.0067 0.06395,0 0.118534,0.03951 -0.03898,0.03197 0.06395,0.03197 0.04132,0 0.158121,0.03373 0.159875,0.03197 0.04778,-0.04778 0.05928,-0.523485 0.06395,-0.607522 0.06187,-1.113719 -0.0015,0.07903 0.06395,-0.575547 0.0074,-0.07424 -0.01463,-0.150665 0,-0.223824 0.0047,-0.02337 0.0273,-0.04058 0.03197,-0.06395 0.02455,-0.122755 -0.02057,-0.260302 0,-0.383698 0.0055,-0.03325 0.02721,-0.06256 0.03197,-0.09592 0.02833,-0.198327 -0.01431,-0.407228 0,-0.607522 0.0486,-0.680416 0.03198,-1.363894 0.03198,-2.046389 0,-0.714105 0,-1.42821 0,-2.142314 0,-0.368372 -0.03059,-0.752083 0,-1.119119 0.0287,-0.344398 0.03197,-0.675149 0.03197,-1.023195 0,-1.318363 -0.02247,-0.03709 0.03198,-0.799371 0.0203,-0.28414 0,-0.578583 0,-0.8633203 0,-0.68213 0,-1.3642597 0,-2.0463893 0,-0.4159811 0.01927,-0.8370512 -0.03198,-1.2470186 -0.01866,-0.1493139 0.005,-0.171813 -0.03197,-0.3197484 -0.03675,-0.1470015 0.0011,-0.3461131 -0.03198,-0.5115973 z"
       id="path5" /><path
       style="fill:none;stroke:#ffffff;stroke-width:2.178;stroke-linejoin:round;stroke-dasharray:none;stroke-opacity:1"
       d="M 20.122564,0.90438487 C 19.763365,1.950718 19.019278,2.7975835 18.359013,3.6627588 18.110258,3.9887143 17.885506,4.3325809 17.635505,4.6575821 16.980996,5.5084437 16.286577,6.328566 15.645858,7.1898599 15.366385,7.565546 15.16571,7.9968213 14.877131,8.3655603 14.350153,9.0389219 13.762123,9.662189 13.204019,10.309988 12.91803,10.64194 12.5879,10.940242 12.344854,11.304811 c -0.153716,0.230574 -0.211023,0.512485 -0.316535,0.768727 -0.211023,0.346681 -0.404436,0.704714 -0.63307,1.040043 -0.476655,0.699094 -0.941381,1.17981 -1.4470153,1.853989 -0.7072823,0.943043 -1.3435737,1.93939 -2.0348659,2.894032 -0.2457916,0.339426 -0.5270537,0.652452 -0.7687273,0.994823 -0.082004,0.116172 -0.1434446,0.246042 -0.2260962,0.361754 -0.3787516,0.530252 -0.8347615,1.010875 -1.2209196,1.537454 -0.1558898,0.212577 -0.2762051,0.431941 -0.4521924,0.63307 -0.4327607,0.43276 0.080891,-0.121336 -0.1808769,0.271315 -0.00836,0.01254 -0.030146,0 -0.045219,0"
       id="path7" /><path
       style="fill:none;stroke:#ffffff;stroke-width:2.178;stroke-linejoin:round;stroke-dasharray:none;stroke-opacity:1"
       d="m 4.1149513,1.6278928 c 0.031099,0.6347241 0.5129046,1.2926981 0.8139464,1.8087698 0.2553057,0.4376671 0.4971378,0.8836048 0.768727,1.311358 0.3548663,0.5589146 1.1156453,1.6954246 1.6278929,2.3061816 0.5688716,0.6782697 1.2084746,1.2961085 1.8087697,1.9444274 0.568207,0.6136635 0.4681749,0.6076243 1.0400427,1.2661394 0.307811,0.354449 0.645346,0.682539 0.949604,1.040042 1.064898,1.251255 0.605887,0.78425 1.447016,1.944428 0.324164,0.447122 1.313853,1.713705 1.627893,2.080085 0.229003,0.267171 0.488109,0.507173 0.723508,0.768727 0.171713,0.190793 0.324746,0.397918 0.497411,0.58785 0.129052,0.141957 0.285014,0.258879 0.406974,0.406973 0.0904,0.109768 0.144092,0.245582 0.226096,0.361754 0.444601,0.629852 0.905784,1.240151 1.311358,1.899209 0.216119,0.351194 0.394185,0.722139 0.58785,1.085261 0.251916,0.472342 0.528755,0.921852 0.768727,1.401797"
       id="path8" /></g></svg>
